<?xml version="1.0" encoding="utf-8"?>
<!-- Generator: Adobe Illustrator 27.5.0, SVG Export Plug-In . SVG Version: 6.00 Build 0)  -->
<svg version="1.1" id="Layer_2" xmlns="http://www.w3.org/2000/svg" xmlns:xlink="http://www.w3.org/1999/xlink" x="0px" y="0px"
	 viewBox="0 0 334.465 400" style="enable-background:new 0 0 334.465 400;" xml:space="preserve">
<g>
	<g>
		<g>
			<path style="fill:#223B1E;" d="M194.467,283.101l32.638-4.295c0,0,5.869,29.489,0.143,51.248
				C227.249,330.055,194.467,330.914,194.467,283.101z"/>
			<path style="fill:#A7A9AC;" d="M194.467,283.101l32.638-4.295c0,0,5.869,29.489,0.143,51.248
				C227.249,330.055,194.467,330.914,194.467,283.101z"/>
		</g>
		<g>
			<path style="fill:#223B1E;" d="M139.998,283.101l-32.638-4.295c0,0-5.869,29.489-0.143,51.248
				C107.216,330.055,139.998,330.914,139.998,283.101z"/>
			<path style="fill:#A7A9AC;" d="M139.998,283.101l-32.638-4.295c0,0-5.869,29.489-0.143,51.248
				C107.216,330.055,139.998,330.914,139.998,283.101z"/>
		</g>
		<g>
			<path style="fill:#F6B687;" d="M240.558,390v-64.331l-18.121-3.04c-29.295-2.238-12.643-77.682-12.643-77.682h-85.765
				c0,0,16.652,75.444-12.643,77.682l-18.122,3.04V390H240.558z"/>
			<path style="opacity:0.6;fill:#F6B687;" d="M166.209,292.942c2.981,0.414,5.844-1.974,8.398-3.135
				c3.366-1.53,6.712-3.108,10.019-4.763c6.589-3.296,13.042-6.895,19.148-11.026c0.657-0.444,1.304-0.901,1.946-1.363
				c1.288-15.078,4.075-27.708,4.075-27.708h-85.765c0,0,2.79,12.643,4.077,27.731c10.967,7.817,23.557,13.316,35.572,19.325
				C164.486,292.408,165.313,292.818,166.209,292.942z"/>
			<path style="fill:#D3B696;" d="M240.558,390v-64.331l-18.121-3.04c-0.563-0.043-1.108-0.116-1.638-0.212l0,0
				c-3.257-0.591-5.89-2.165-8-4.477c-4.478,14.084-23.32,24.656-45.888,24.656c-22.568,0-41.411-10.572-45.888-24.656
				c-1.531,1.677-3.336,2.966-5.456,3.773c-0.009,0.003-0.017,0.006-0.026,0.01c-0.191,0.072-0.385,0.141-0.582,0.205
				c-0.034,0.011-0.068,0.022-0.103,0.033c-0.173,0.055-0.347,0.107-0.523,0.156c-0.052,0.014-0.103,0.029-0.155,0.043
				c-0.162,0.043-0.325,0.083-0.49,0.121c-0.064,0.015-0.128,0.03-0.193,0.044c-0.158,0.034-0.318,0.064-0.479,0.093
				c-0.071,0.013-0.141,0.027-0.212,0.039c-0.166,0.028-0.335,0.051-0.504,0.074c-0.067,0.009-0.132,0.02-0.199,0.028
				c-0.236,0.028-0.474,0.053-0.716,0.071l-18.122,3.04V390H240.558z"/>
			<path style="fill:#D3B696;" d="M212.801,317.936c-4.475,14.086-23.319,24.661-45.89,24.661
				c-22.572,0-41.417-10.576-45.891-24.664c-2.453,2.689-5.607,4.389-9.635,4.697l-0.874,0.147
				c5.038,17.132,27.786,30.062,55.092,30.062c27.496,0,50.371-13.111,55.195-30.421
				C217.542,321.826,214.911,320.248,212.801,317.936z"/>
		</g>
		<g>
			<g>
				<path style="fill:#223B1E;" d="M125.401,390l-1.819-35.556l-17.16-26.744c0,0-45.687,4.012-81.345,23.846
					c0,0-12.48,10.92-16.715,36.995c0,0,1.67,0.561,4.779,1.458H125.401z"/>
				<path style="opacity:0.5;fill:#223B1E;" d="M97.736,365.233c3.854-2.172,7.899-4.004,12.07-5.478
					c3.679-1.301,7.799-3.192,11.778-2.539c0.159,0.026,0.216,0.205,0.193,0.34c-0.626,3.728-1.442,7.42-1.939,11.17
					c-0.838,6.329-0.968,12.763-0.44,19.125c0.06,0.717,0.131,1.433,0.208,2.149h5.795l-1.819-35.556l-17.16-26.744
					c0,0-0.731,0.064-2.078,0.216c-0.813,0.698-1.602,1.422-2.358,2.184c-5.287,5.323-9.394,11.885-12.154,18.846
					c-1.385,3.491-2.434,7.128-3.008,10.842c-0.397,2.567-1.557,7.777,0.317,9.938C88.71,371.536,96.216,366.09,97.736,365.233z"/>
				<path style="fill:#223B1E;" d="M30.067,359.509c-0.002,0.058,0.016,0.109,0.055,0.145c0.473,1.248,0.919,2.507,1.332,3.775
					c2.793,8.572,4.391,17.577,5.093,26.571h1.175c-0.149-1.944-0.343-3.885-0.583-5.82c-1.041-8.404-2.836-16.879-5.879-24.834
					c2.11-0.79,4.191-1.671,6.289-2.491c2.401-0.939,4.812-1.854,7.231-2.743c4.84-1.779,9.716-3.461,14.624-5.044
					c4.848-1.565,9.729-3.031,14.636-4.398c4.988-1.389,10.001-2.711,15.072-3.764c5.707-1.184,11.505-1.992,17.339-2.08
					c0.461-0.007,0.796-0.73,0.172-0.721c-10.424,0.163-20.635,2.621-30.641,5.354c-9.952,2.718-19.793,5.843-29.486,9.375
					c-2.749,1.002-5.486,2.035-8.211,3.101c-2.408,0.941-4.844,1.868-7.201,2.94c-0.73-1.874-1.531-3.719-2.409-5.526
					c-0.479-0.986-0.989-1.964-1.517-2.934c-0.324,0.173-0.647,0.348-0.97,0.523c0.007,0.014,0.015,0.027,0.023,0.041
					C27.68,353.735,28.955,356.591,30.067,359.509z"/>
			</g>
			<path style="fill:#223B1E;" d="M97.233,354.337c6.528-9.984,6.4-13.184,11.008-11.776c4.608,1.408,13.696,11.264,13.952,13.952
				c0.183,1.92,0.301,19.317,1.053,33.487h3.848l-2.147-35.64c0,0-23.361-53.093-13.349-72.509c0,0,12.135,3.641,18.203,2.427
				c0,0-0.056-3.67-0.696-4.822s-21.888-8.576-25.728,0.384c-3.84,8.96-29.184,66.177-18.944,86.145
				C84.433,365.985,90.705,364.321,97.233,354.337z"/>
		</g>
		<g>
			<g>
				<path style="fill:#223B1E;" d="M321.325,390c3.109-0.897,4.779-1.458,4.779-1.458c-4.234-26.075-16.715-36.995-16.715-36.995
					c-35.658-19.835-81.345-23.846-81.345-23.846l-17.16,26.744L209.064,390H321.325z"/>
				<path style="opacity:0.5;fill:#223B1E;" d="M214.859,390c0.077-0.716,0.148-1.432,0.208-2.149
					c0.528-6.362,0.398-12.795-0.44-19.125c-0.496-3.75-1.313-7.442-1.939-11.17c-0.023-0.135,0.034-0.314,0.193-0.34
					c3.98-0.653,8.099,1.238,11.778,2.539c4.171,1.475,8.216,3.306,12.07,5.478c1.52,0.857,9.025,6.303,10.595,4.493
					c1.874-2.161,0.714-7.371,0.317-9.938c-0.574-3.714-1.623-7.351-3.008-10.842c-2.761-6.961-6.867-13.523-12.154-18.846
					c-0.756-0.761-1.546-1.486-2.358-2.184c-1.346-0.152-2.078-0.216-2.078-0.216l-17.16,26.744L209.064,390H214.859z"/>
				<path style="fill:#223B1E;" d="M228.015,338.827c5.834,0.088,11.632,0.895,17.339,2.08c5.071,1.052,10.084,2.375,15.072,3.764
					c4.908,1.367,9.788,2.833,14.636,4.398c4.908,1.583,9.784,3.265,14.624,5.044c2.42,0.89,4.83,1.804,7.231,2.743
					c2.098,0.821,4.179,1.701,6.289,2.491c-3.043,7.955-4.838,16.431-5.879,24.834c-0.24,1.935-0.434,3.876-0.583,5.82h1.175
					c0.702-8.993,2.3-17.999,5.093-26.571c0.413-1.268,0.859-2.527,1.332-3.775c0.039-0.036,0.058-0.087,0.055-0.145
					c1.111-2.918,2.387-5.774,3.858-8.528c0.007-0.014,0.015-0.027,0.023-0.041c-0.323-0.176-0.646-0.35-0.97-0.523
					c-0.527,0.97-1.037,1.948-1.517,2.934c-0.878,1.807-1.679,3.651-2.409,5.526c-2.357-1.072-4.793-1.998-7.201-2.94
					c-2.725-1.065-5.462-2.099-8.211-3.101c-9.693-3.532-19.534-6.657-29.486-9.375c-10.006-2.733-20.217-5.192-30.641-5.354
					C227.219,338.096,227.553,338.82,228.015,338.827z"/>
			</g>
			<path style="fill:#223B1E;" d="M222.867,281.85c10.012,19.417-13.349,72.509-13.349,72.509L207.371,390h3.848
				c0.752-14.17,0.87-31.567,1.053-33.487c0.256-2.688,9.344-12.544,13.952-13.952c4.608-1.408,4.48,1.792,11.008,11.776
				c6.528,9.984,12.8,11.648,12.8,11.648c10.24-19.968-15.104-77.185-18.944-86.145c-3.84-8.96-25.088-1.536-25.728-0.384
				s-0.696,4.822-0.696,4.822C210.732,285.491,222.867,281.85,222.867,281.85z"/>
		</g>
	</g>
	<g>
		<g>
			<path style="fill:#F6B687;" d="M86.081,77.816c0,0-9.504,63.229,7.787,125.379c1.419,5.098,3.032,10.146,4.93,15.088
				c4.474,11.654,10.481,22.732,19.451,31.565c12.795,12.598,29.612,19.621,45.429,27.531c0.809,0.405,1.636,0.814,2.531,0.939
				c2.981,0.414,5.844-1.974,8.398-3.135c3.366-1.53,6.712-3.108,10.019-4.763c6.589-3.296,13.042-6.895,19.148-11.026
				c8.096-5.478,15.1-12.309,20.58-20.418c7.313-10.823,11.961-23.263,15.444-35.781c17.292-62.15,7.788-125.379,7.788-125.379
				s-23.919-26.772-79.866-26.772C111.773,51.045,86.081,77.816,86.081,77.816z"/>
			<path style="opacity:0.7;fill:#F6B687;" d="M247.585,77.816c0,0-23.919-26.772-79.866-26.772
				c-55.946,0-81.638,26.772-81.638,26.772s-9.504,63.229,7.787,125.379c0.64,2.299,1.322,4.587,2.049,6.86
				c-4.174-19.067-11.209-58.158-0.686-65.674c14.029-10.021,4.867-32.925,7.444-36.647c2.577-3.722,28.057-17.178,28.057-17.178
				s-2.29,20.327,6.871,23.763c0,0,6.585-23.477,29.203-24.908c22.618-1.431,41.514-11.166,41.514-11.166
				s-4.867,20.041,24.622,32.352c0,0-2.615,26.936,15.012,33.08c0.498,0.174,0.986,0.386,1.467,0.626
				C251.901,106.544,247.585,77.816,247.585,77.816z"/>
			<g>
				<g>
					<path style="fill:#FED09E;" d="M166.916,210.206h-0.167c-9.783,0-15.266-3.718-18.293-7.337l-0.305,0.538
						c0,0,2.357,12.035,18.611,12.035h0.143c16.253,0,18.611-12.035,18.611-12.035l-0.305-0.538
						C182.182,206.488,176.699,210.206,166.916,210.206z"/>
					<path style="fill:#754C29;" d="M177.698,189.635l8.187,13.561c0.055,0.092,0.069,0.196,0.047,0.295
						c-0.792,1.958-1.559,3.783-2.711,5.535c-3.785,5.02-10.423,6.44-16.388,6.422c-6.118,0.137-12.379-1.445-16.275-6.51
						c-1.247-1.624-2.258-3.403-2.822-5.447c-0.022-0.102-0.005-0.209,0.047-0.293l8.185-13.562l-7.447,13.981l0.047-0.291
						c0.383,1.866,1.32,3.702,2.487,5.227c4.912,6.33,14.236,8.042,21.717,6.178c3.821-0.946,7.308-3.175,9.728-6.265
						c1.272-1.418,2.449-3.2,2.597-5.138c0.001-0.006,0.048,0.292,0.048,0.291L177.698,189.635L177.698,189.635z"/>
				</g>
				<g>
					<g>
						<path style="fill:#754C29;" d="M99.586,138.311c0,0,24.681-12.156,49.914,2.579c0,0,3.131-3.499,0.368-17.129
							c0,0-27.444-1.105-36.1,2.763C105.111,130.391,99.586,138.311,99.586,138.311z"/>
						<g>
							<path style="fill:#FFFFFF;" d="M109.628,161.305c0,0-1.948,5.4,2.744,8.587c4.692,3.187,9.087,6.365,21.891,6.512
								c0,0,10.722-2.497,13.91-5.29l-0.006-1.708c0,0-7.773-15.486-21.029-14.642S109.628,161.305,109.628,161.305z"/>
							<path style="fill:#231F20;" d="M147.341,160.619c-5.987-8.029-16.089-12.723-26.088-11.764
								c-3.309,0.244-6.594,0.907-9.832,1.834c-0.088,0.025-0.18-0.025-0.205-0.113c-0.023-0.08,0.018-0.164,0.092-0.197
								c3.104-1.369,6.438-2.28,9.853-2.617c8.564-0.916,17.391,2.419,23.291,8.675c1.174,1.237,2.27,2.543,3.168,4.005
								c0.048,0.078,0.023,0.179-0.054,0.227C147.488,160.718,147.389,160.693,147.341,160.619L147.341,160.619z"/>
							<g>
								<path style="fill:#231F20;" d="M134.182,176.65c-8.974,1.016-20.26-1.062-24.816-9.76c-0.146-0.262,0.248-0.514,0.421-0.261
									c5.668,7.384,15.495,9.448,24.351,9.528C134.438,176.135,134.493,176.618,134.182,176.65L134.182,176.65z"/>
							</g>
							<g>
								
									<ellipse transform="matrix(0.3801 -0.925 0.925 0.3801 -71.2825 222.5092)" style="fill:#2A709B;" cx="130.357" cy="164.433" rx="11.209" ry="11.209"/>
								<path style="fill:#241F20;" d="M123.929,164.433c0,3.55,2.878,6.427,6.427,6.427c3.55,0,6.427-2.878,6.427-6.427
									c0-3.55-2.878-6.427-6.427-6.427C126.807,158.006,123.929,160.883,123.929,164.433z"/>
								<path style="fill:#FFFFFF;" d="M132.111,162.147c0,2.233,1.811,4.044,4.044,4.044c2.233,0,4.044-1.81,4.044-4.044
									c0-2.233-1.811-4.044-4.044-4.044C133.921,158.103,132.111,159.913,132.111,162.147z"/>
							</g>
							<path style="fill:#231F20;" d="M150.661,172.891c-0.102,0.001-1.135-3.045-1.221-3.246c-1.086-2.529-2.407-4.965-3.977-7.226
								c-1.956-2.815-4.328-5.382-7.171-7.318c-4.781-3.255-10.65-3.758-16.255-3.165c-1.972,0.209-3.934,0.555-5.834,1.127
								c-3.754,1.129-7.38,3.222-9.718,6.435c-0.61,0.839-1.11,1.75-1.59,2.663c-0.096,0.183-0.792,1.962-0.992,1.923
								c2.176,0.421,4.618,0.333,6.961-0.965c6.574-3.642,12.526-8.795,22.475-6.041c9.949,2.754,14.835,14.036,14.835,14.036
								l-3.287,1.866C144.886,172.98,150.66,172.891,150.661,172.891z"/>
						</g>
					</g>
					<g>
						<path style="fill:#754C29;" d="M234.079,138.311c0,0-24.681-12.156-49.914,2.579c0,0-3.131-3.499-0.368-17.129
							c0,0,27.444-1.105,36.1,2.763C228.554,130.391,234.079,138.311,234.079,138.311z"/>
						<g>
							<path style="fill:#FFFFFF;" d="M224.037,161.305c0,0,1.948,5.4-2.744,8.587c-4.692,3.187-9.087,6.365-21.891,6.512
								c0,0-10.722-2.497-13.91-5.29l0.006-1.708c0,0,7.773-15.486,21.03-14.642C219.784,155.608,224.037,161.305,224.037,161.305z"
								/>
							<path style="fill:#231F20;" d="M186.325,160.619c5.987-8.029,16.089-12.723,26.088-11.764
								c3.309,0.244,6.594,0.907,9.832,1.834c0.088,0.025,0.179-0.025,0.205-0.113c0.023-0.08-0.018-0.164-0.092-0.197
								c-3.104-1.369-6.438-2.28-9.853-2.617c-8.564-0.916-17.391,2.419-23.291,8.675c-1.174,1.237-2.27,2.543-3.168,4.005
								c-0.048,0.078-0.023,0.179,0.054,0.227C186.177,160.718,186.276,160.693,186.325,160.619L186.325,160.619z"/>
							<g>
								<path style="fill:#231F20;" d="M199.483,176.65c8.974,1.016,20.26-1.062,24.816-9.76c0.146-0.262-0.248-0.514-0.421-0.261
									c-5.668,7.384-15.495,9.448-24.351,9.528C199.227,176.135,199.172,176.618,199.483,176.65L199.483,176.65z"/>
							</g>
							<g>
								
									<ellipse transform="matrix(0.925 -0.3801 0.3801 0.925 -47.2402 89.6137)" style="fill:#2A709B;" cx="203.309" cy="164.433" rx="11.209" ry="11.209"/>
								<path style="fill:#241F20;" d="M209.736,164.433c0,3.55-2.878,6.427-6.427,6.427s-6.427-2.878-6.427-6.427
									c0-3.55,2.878-6.427,6.427-6.427S209.736,160.883,209.736,164.433z"/>
								<path style="fill:#FFFFFF;" d="M201.554,162.147c0,2.233-1.811,4.044-4.044,4.044c-2.233,0-4.044-1.81-4.044-4.044
									c0-2.233,1.811-4.044,4.044-4.044C199.744,158.103,201.554,159.913,201.554,162.147z"/>
							</g>
							<path style="fill:#231F20;" d="M183.005,172.891c0.102,0.001,1.135-3.045,1.221-3.246c1.086-2.529,2.407-4.965,3.977-7.226
								c1.956-2.815,4.328-5.382,7.171-7.318c4.781-3.255,10.65-3.758,16.255-3.165c1.972,0.209,3.934,0.555,5.834,1.127
								c3.754,1.129,7.38,3.222,9.718,6.435c0.61,0.839,1.11,1.75,1.59,2.663c0.096,0.183,0.792,1.962,0.992,1.923
								c-2.176,0.421-4.618,0.333-6.961-0.965c-6.574-3.642-12.526-8.795-22.475-6.041c-9.949,2.754-14.835,14.036-14.835,14.036
								l3.287,1.866C188.779,172.98,183.005,172.891,183.005,172.891z"/>
						</g>
					</g>
				</g>
				<g>
					<path style="fill:#FED09E;" d="M167.788,243.285c1.211,0,2.348-0.049,3.562-0.246c1.248-0.203,2.485-0.477,3.703-0.817
						c2.437-0.682,4.799-1.631,7.033-2.819c4.422-2.352,8.355-6.502,11.371-10.506c-4.353,0.101-8.706,0.522-13.06,0.571
						s-8.803,0.615-12.686,2.584c-8.134-3.383-17.299-2.792-26.085-2.145c3.2,3.781,6.983,7.107,11.316,9.506
						c4.391,2.431,9.342,3.872,14.377,3.872H167.788z"/>
					<g>
						<path style="fill:#C49A6C;" d="M166.98,236.654h-0.294c-0.009,0-0.018,0-0.028-0.001c-19.551-0.103-29.395-9.616-29.492-9.713
							c-0.172-0.17-0.173-0.446-0.004-0.618c0.17-0.172,0.447-0.173,0.618-0.004c0.096,0.094,9.769,9.413,29.052,9.461
							c19.283-0.048,28.957-9.367,29.052-9.461c0.172-0.169,0.449-0.168,0.618,0.004c0.17,0.172,0.168,0.448-0.003,0.618
							c-0.098,0.096-9.942,9.609-29.493,9.713C166.998,236.654,166.989,236.654,166.98,236.654z"/>
					</g>
					<g>
						<path style="fill:#C49A6C;" d="M166.98,236.654h-0.294c-0.009,0-0.018,0-0.028-0.001c-19.551-0.103-29.395-9.616-29.492-9.713
							c-0.172-0.17-0.173-0.446-0.004-0.618c0.17-0.172,0.447-0.173,0.618-0.004c0.096,0.094,9.769,9.413,29.052,9.461
							c19.283-0.048,28.957-9.367,29.052-9.461c0.172-0.169,0.449-0.168,0.618,0.004c0.17,0.172,0.168,0.448-0.003,0.618
							c-0.098,0.096-9.942,9.609-29.493,9.713C166.998,236.654,166.989,236.654,166.98,236.654z"/>
					</g>
				</g>
			</g>
			<g>
				<g>
					<path style="fill:#F6B687;" d="M243.199,175.338c0.247-0.723,11.198-29.161,27.372-24.821
						c6.232,1.672,7.752,7.935,7.513,13.745c-0.349,8.497-3.33,17.758-7.447,25.18c-3.795,6.84-9.4,12.822-16.876,15.555
						c-4.149,1.517-13.283,4.243-15.864-1.231c-0.929-1.97-0.497-4.383,0.095-6.38C242.931,180.705,243.199,175.338,243.199,175.338
						z"/>
					<path style="fill:#F6B687;" d="M257.507,193.676c0,0,8.582-0.263,13.826-11.672c5.244-11.409,3.798-25.468-3.022-25.276
						c-6.82,0.192-18.611,18.949-18.611,18.949s7.833,3.405,1.949,10.7c0,0,12.017-1.948,11.852-9.095
						c-0.164-7.147-7.384-7.428-7.384-7.428s10.403-12.729,14.595-9.083C274.904,164.418,269.333,191.383,257.507,193.676z"/>
				</g>
				<g>
					<path style="fill:#F6B687;" d="M90.467,175.338c-0.247-0.723-11.198-29.161-27.372-24.821
						c-6.232,1.672-7.752,7.935-7.513,13.745c0.349,8.497,3.33,17.758,7.447,25.18c3.795,6.84,9.4,12.822,16.876,15.555
						c4.149,1.517,13.283,4.243,15.864-1.231c0.929-1.97,0.497-4.383-0.094-6.38C90.734,180.705,90.467,175.338,90.467,175.338z"/>
					<path style="fill:#F6B687;" d="M76.158,193.676c0,0-8.582-0.263-13.826-11.672c-5.244-11.409-3.798-25.468,3.022-25.276
						c6.82,0.192,18.611,18.949,18.611,18.949s-7.833,3.405-1.949,10.7c0,0-12.017-1.948-11.852-9.095
						c0.164-7.147,7.384-7.428,7.384-7.428s-10.403-12.729-14.595-9.083C58.762,164.418,64.332,191.383,76.158,193.676z"/>
				</g>
			</g>
		</g>
		<g>
			<path style="fill:#D64F25;" d="M95.404,96.828c0,0,7.872,41.282-10.752,46.85c0,0-0.96,13.248,4.032,27.073
				c0,0-17.857-25.921-17.857-55.682c0,0-1.536,9.984,1.152,20.929c0,0-12.096-27.265,3.264-44.738
				C90.603,73.787,95.404,96.828,95.404,96.828z"/>
			<path style="fill:#D1D3D4;" d="M95.404,96.828c0,0,7.872,41.282-10.752,46.85c0,0-0.96,13.248,4.032,27.073
				c0,0-17.857-25.921-17.857-55.682c0,0-1.536,9.984,1.152,20.929c0,0-12.096-27.265,3.264-44.738
				C90.603,73.787,95.404,96.828,95.404,96.828z"/>
		</g>
		<g>
			<path style="fill:#D64F25;" d="M237.201,96.828c0,0-7.872,41.282,10.752,46.85c0,0,0.96,13.248-4.032,27.073
				c0,0,17.857-25.921,17.857-55.682c0,0,1.536,9.984-1.152,20.929c0,0,12.096-27.265-3.264-44.738
				C242.001,73.787,237.201,96.828,237.201,96.828z"/>
			<path style="fill:#D1D3D4;" d="M237.201,96.828c0,0-7.872,41.282,10.752,46.85c0,0,0.96,13.248-4.032,27.073
				c0,0,17.857-25.921,17.857-55.682c0,0,1.536,9.984-1.152,20.929c0,0,12.096-27.265-3.264-44.738
				C242.001,73.787,237.201,96.828,237.201,96.828z"/>
		</g>
		<g>
			<path style="fill:#D64F25;" d="M211.808,72.478c0,0-8.627,6.995-41.037,7.694c-18.991,0.41-32.739,14.384-35.734,32.625
				c-0.064,0.393-0.13,0.787-0.172,1.183c0,0-17.487-25.181,10.725-41.27c0,0-50.363,41.969-75.311,28.446
				C45.33,87.633,52.325,68.048,52.325,68.048s9.56,18.187,29.378,15.855c0,0-34.275-4.663-27.979-48.498
				c0,0,10.726,18.886,27.513,20.984c0,0-19.586-6.762-22.85-32.643c0,0,11.192,11.425,28.912,9.093
				c17.72-2.332,36.14-26.58,88.601-8.627c0,0-13.757-9.56-37.306-8.86c0,0,22.617-10.492,52.695-2.099
				c30.078,8.394,31.71,32.41,31.477,38.005c0,0,7.228-25.181-16.787-37.539c0.826,0.425,3.487-0.191,4.435-0.17
				c3.438,0.075,6.899,0.57,10.171,1.646c8.585,2.824,15.044,10.426,13.833,19.744c-0.969,7.455-4.457,14.912-8.853,20.983
				c0.931-1.286,5.318-1.817,6.693-2.103c5.098-1.058,10.546-1.142,15.624,0.062c10.954,2.596,19.485,9.963,25.714,19.062
				c20.751,30.311-9.093,54.327-13.757,53.86c0,0,4.197-6.295-3.73-10.259C248.181,112.582,200.849,93.696,211.808,72.478z"/>
			<g>
				<path style="fill:#D64F25;" d="M155.577,80.003c-22.784,8.43-20.712,33.978-20.712,33.978c0.042-0.396,0.108-0.79,0.172-1.183
					c2.996-18.241,16.743-32.215,35.734-32.625c32.41-0.7,41.037-7.694,41.037-7.694c-0.42,0.814-0.745,1.624-0.999,2.43
					c3.812-8.13,5.147-15.639,5.147-15.639C211.171,72.712,178.361,71.573,155.577,80.003z"/>
				<path style="fill:#D64F25;" d="M70.279,101.157c17.863,9.683,48.75-9.081,64.857-20.521c1.406-2.614,2.214-4.962,2.214-4.962
					S99.983,98.686,81.755,99.142c-18.228,0.456-28.708-16.405-28.708-16.405l-0.23-0.062
					C54.884,88.625,59.721,95.434,70.279,101.157z"/>
			</g>
		</g>
	</g>
</g>
</svg>
