<?xml version="1.0" encoding="utf-8"?>
<!-- Generator: Adobe Illustrator 27.5.0, SVG Export Plug-In . SVG Version: 6.00 Build 0)  -->
<svg version="1.1" xmlns="http://www.w3.org/2000/svg" xmlns:xlink="http://www.w3.org/1999/xlink" x="0px" y="0px"
	 viewBox="0 0 285.361 400" style="enable-background:new 0 0 285.361 400;" xml:space="preserve">
<g id="Layer_1">
</g>
<g id="Layer_2">
	<g>
		<g>
			<g>
				<g>
					<g>
						<path style="fill:#FED09E;" d="M278.227,336.58c0-16.741-7.469-31.381-20.408-41.839
							c-10.046-8.121-22.026-13.517-33.995-18.141c-14.558-5.624-33.296-7.999-43.02-21.537c-7.891-10.986-9.162-25.61-9.406-38.598
							c-0.178-9.472,0.313-19.039,1.609-28.43h-60.655c1.296,9.391,1.787,18.958,1.609,28.43
							c-0.244,12.988-1.514,27.612-9.405,38.598c-9.724,13.538-28.463,15.913-43.02,21.537
							c-11.969,4.624-23.949,10.02-33.995,18.141C14.603,305.199,7.134,319.839,7.134,336.58c0,0,39.234,55.917,140.231,53.333
							C246.708,387.372,278.227,336.58,278.227,336.58z"/>
					</g>
					<path style="opacity:0.7;fill:#FED09E;" d="M140.839,231.049c11.823-1.175,21.933-4.667,30.583-9.828
						c-0.008-0.357-0.016-0.713-0.023-1.067c-0.178-9.472,0.313-19.039,1.609-28.43h-60.655c1.296,9.391,1.787,18.958,1.609,28.43
						c-0.019,1.027-0.046,2.064-0.081,3.108c7.807,4.04,16.724,6.774,26.914,7.787H140.839z"/>
				</g>
				<g>
					<path style="fill:#A70E13;" d="M257.82,294.741c-10.046-8.121-22.026-13.517-33.995-18.141
						c-0.885-0.342-1.785-0.671-2.698-0.992c-1.918,14.246-13.854,75.121-77.745,75.121c-62.532,0-72.178-60.504-73.644-76.937
						c-2.818,0.887-5.577,1.795-8.201,2.808c-11.969,4.624-23.949,10.02-33.995,18.141C14.604,305.199,7.134,319.839,7.134,336.58
						c0,0,39.234,55.917,140.231,53.333c99.343-2.541,130.862-53.333,130.862-53.333
						C278.227,319.839,270.758,305.199,257.82,294.741z"/>
					<path style="opacity:0.3;fill:#A70E13;" d="M257.82,294.741c-10.046-8.121-22.026-13.517-33.995-18.141
						c-0.885-0.342-1.785-0.671-2.698-0.992c-1.918,14.246-13.854,75.121-77.745,75.121c-1.425,0-2.822-0.032-4.192-0.094
						c-4.824,6.141-10.321,11.83-16.403,16.725c-6.309,5.078-13.244,9.37-20.552,12.853c-3.59,1.711-7.274,3.229-11.031,4.536
						c16.084,3.626,34.731,5.713,56.161,5.165c99.343-2.541,130.862-53.333,130.862-53.333
						C278.227,319.839,270.758,305.199,257.82,294.741z"/>
				</g>
				<path style="fill:#FFC20E;" d="M257.82,294.741c-10.046-8.121-22.026-13.517-33.995-18.141
					c-3.504-1.354-7.251-2.519-11.055-3.697c-1.633-0.506-3.277-1.014-4.917-1.54c-3.763,4.338-8.783,10.894-14.501,18.755
					c-0.262,0.36-0.525,0.722-0.789,1.088c-0.529,0.73-1.064,1.471-1.604,2.222c-0.54,0.751-1.085,1.512-1.635,2.281
					c-0.55,0.77-1.105,1.549-1.664,2.336c-0.279,0.394-0.56,0.79-0.842,1.187c-0.563,0.796-1.131,1.599-1.702,2.411
					c-0.857,1.217-1.722,2.45-2.593,3.698c-0.872,1.248-1.75,2.51-2.634,3.783c-0.589,0.849-1.181,1.704-1.775,2.563
					c-0.89,1.289-1.785,2.587-2.683,3.894c-1.197,1.742-2.4,3.499-3.604,5.263c-0.903,1.324-1.808,2.652-2.712,3.983
					c-0.904,1.331-1.807,2.664-2.709,3.997c-0.601,0.889-1.201,1.777-1.8,2.665c-0.898,1.332-1.794,2.662-2.686,3.989
					c-0.891,1.326-1.778,2.649-2.66,3.965c-0.294,0.439-0.587,0.877-0.879,1.314c-7.312,10.93-14.191,21.362-19.798,29.922
					c-5.736,8.757-10.138,15.549-12.311,18.911c2.968,0.172,5.997,0.292,9.09,0.356c3.901,0.081,7.901,0.074,12.005-0.031
					c93.289-2.386,126.768-47.32,130.502-52.788l0.344-1.751C277.86,319.137,270.446,304.947,257.82,294.741z"/>
				<g style="opacity:0.3;">
					<path style="fill:#A70E13;" d="M264.584,301.138c-3.829,17.559-13.621,33.615-26.296,46.383
						c-15.602,15.717-36.122,25.762-57.58,30.668c-22.382,5.117-45.528,4.471-67.653-1.586
						c-22.682-6.21-43.493-18.067-61.883-32.575c-13.918-10.981-27.358-25.377-30.138-43.172
						c-8.901,9.744-13.901,22.03-13.901,35.724c0,0,39.234,55.917,140.231,53.333c99.343-2.541,130.862-53.333,130.862-53.333
						C278.227,323.018,273.324,310.836,264.584,301.138z"/>
				</g>
			</g>
			<g>
				<path style="fill:#58595B;" d="M45.261,142.026l-1.58,8.488c0,0,7.057,34.684,25.744,44.672
					c2.798,1.496-6.221,9.569-7.229,10.516c-5.062,4.751-9.056,8.761-9.985,16.042c-0.678,5.316-0.044,10.644,1.254,15.816
					c1.123,4.478,4.644,10.436,3.923,15.062c-0.362,2.321-1.906,4.293-3.655,5.861c-7.115,6.376-15.938,11.089-17.004,21.586
					c-1.038,10.219,3.782,20.724,12.165,26.538c3.723,2.583,11.922,5.026,11.168,10.805c-1.262,9.677-15.146,41.652,14.726,40.39
					c0,0-15.777-10.518,5.89-26.085c21.667-15.567,11.36-41.651,3.787-49.015c1.871,1.819,11.975-4.012,13.399-4.943
					c13.134-8.594,16.764-25.033,17.326-39.721c0.525-13.723-1.388-27.681-4.851-40.954
					C107.814,187.407,53.18,128.199,45.261,142.026z"/>
				<path style="opacity:0.5;fill:#58595B;" d="M110.338,197.084c-1.225-4.696-14.725-21.059-29.201-35.078
					c-0.245,1.475-0.39,2.967-0.42,4.466c-0.072,3.569,0.592,7.032,1.492,10.471c1.843,7.041,4.609,13.787,6.997,20.65
					c1.874,5.386,3.51,10.872,4.304,16.531c0.707,5.033,0.812,10.229-0.298,15.214c-1.091,4.902-3.458,9.47-7.177,12.891
					c-3.813,3.507-8.856,5.699-14.076,5.634c-4.706-0.059-9.208-1.935-12.854-4.854c-2.355-1.885-4.366-4.193-5.954-6.76
					c0.1,0.438,0.202,0.876,0.312,1.312c1.123,4.478,4.644,10.436,3.923,15.062c-0.362,2.321-1.906,4.293-3.655,5.861
					c-0.918,0.823-1.866,1.618-2.821,2.402c0.1-0.017,0.199-0.035,0.299-0.051c1.698-0.271,3.431-0.409,5.151-0.335
					c0.666,0.029,1.346,0.08,1.999,0.226c1.203,0.268,2.386,0.748,3.497,1.274c4.611,2.185,8.418,5.982,11.083,10.291
					c1.25,2.021,2.278,4.212,3.169,6.413c0.882,2.177,1.594,4.422,2.142,6.705c1.105,4.605,1.552,9.377,1.282,14.106
					c-0.268,4.69-1.244,9.359-3.055,13.701c-1.798,4.312-4.43,8.333-7.869,11.515c-3.33,3.081-7.36,5.173-11.679,6.453
					c-2.533,12.534-2.755,27.489,17.858,26.618c0,0-15.777-10.518,5.89-26.085c21.667-15.567,11.36-41.651,3.787-49.014
					c1.871,1.819,11.975-4.012,13.399-4.943c13.134-8.595,16.764-25.033,17.326-39.721
					C115.714,224.315,113.801,210.357,110.338,197.084z"/>
			</g>
			<g>
				<path style="fill:#58595B;" d="M240.434,142.026l1.58,8.488c0,0-7.057,34.684-25.744,44.672
					c-2.798,1.496,6.221,9.569,7.229,10.516c5.062,4.751,9.056,8.761,9.985,16.042c0.678,5.316,0.044,10.644-1.254,15.816
					c-1.123,4.478-4.644,10.436-3.923,15.062c0.362,2.321,1.906,4.293,3.655,5.861c7.115,6.376,15.938,11.089,17.004,21.586
					c1.038,10.219-3.782,20.724-12.165,26.538c-3.723,2.583-11.922,5.026-11.169,10.805c1.262,9.677,15.146,41.652-14.725,40.39
					c0,0,15.777-10.518-5.89-26.085c-21.667-15.567-11.36-41.651-3.787-49.015c-1.871,1.819-11.975-4.012-13.399-4.943
					c-13.135-8.594-16.765-25.033-17.326-39.721c-0.525-13.723,1.388-27.681,4.851-40.954
					C177.881,187.407,232.515,128.199,240.434,142.026z"/>
				<path style="opacity:0.5;fill:#58595B;" d="M175.357,197.084c1.225-4.696,14.724-21.059,29.201-35.078
					c0.245,1.475,0.39,2.967,0.42,4.466c0.072,3.569-0.593,7.032-1.492,10.471c-1.843,7.041-4.609,13.787-6.997,20.65
					c-1.874,5.386-3.51,10.872-4.304,16.531c-0.707,5.033-0.812,10.229,0.298,15.214c1.091,4.902,3.458,9.47,7.177,12.891
					c3.813,3.507,8.856,5.699,14.076,5.634c4.706-0.059,9.208-1.935,12.854-4.854c2.355-1.885,4.366-4.193,5.954-6.76
					c-0.1,0.438-0.202,0.876-0.312,1.312c-1.123,4.478-4.644,10.436-3.923,15.062c0.362,2.321,1.906,4.293,3.655,5.861
					c0.919,0.823,1.866,1.618,2.821,2.402c-0.1-0.017-0.199-0.035-0.299-0.051c-1.698-0.271-3.431-0.409-5.151-0.335
					c-0.666,0.029-1.346,0.08-1.999,0.226c-1.203,0.268-2.386,0.748-3.497,1.274c-4.611,2.185-8.418,5.982-11.082,10.291
					c-1.25,2.021-2.278,4.212-3.169,6.413c-0.882,2.177-1.594,4.422-2.142,6.705c-1.105,4.605-1.552,9.377-1.282,14.106
					c0.268,4.69,1.244,9.359,3.055,13.701c1.798,4.312,4.43,8.333,7.869,11.515c3.33,3.081,7.36,5.173,11.68,6.453
					c2.533,12.534,2.755,27.489-17.858,26.618c0,0,15.777-10.518-5.89-26.085c-21.667-15.567-11.36-41.651-3.787-49.014
					c-1.871,1.819-11.975-4.012-13.399-4.943c-13.135-8.595-16.765-25.033-17.326-39.721
					C169.981,224.315,171.894,210.357,175.357,197.084z"/>
			</g>
		</g>
		<g>
			<path style="fill:#FED09E;" d="M212.485,105.574c0,0,5.876,112.704-70.821,119.898h-0.039
				c-76.697-7.194-70.821-119.898-70.821-119.898s3.76-59.803,72.953-59.803S212.485,105.574,212.485,105.574z"/>
			<g>
				<path style="fill:#58595B;" d="M141.727,16.856c18.955-13.186,61.975-9.89,86.7,32.554s15.091,92.78,15.091,92.78
					c-4.55,46.072-47.209,50.906-47.209,50.906c22.467-39.815,14.788-71.952,11.091-74.227
					c-3.697-2.275-26.449-13.935-35.549-35.265c-9.101-21.33-30.146-27.871-30.146-27.871h-0.119c0,0-21.045,6.541-30.146,27.871
					s-31.852,32.99-35.549,35.265c-3.697,2.275-11.376,34.412,11.091,74.227c0,0-42.659-4.835-47.209-50.906
					c0,0-9.633-50.337,15.091-92.78c24.724-42.443,67.744-45.74,86.7-32.554H141.727z"/>
				<g style="opacity:0.5;">
					<path style="fill:#58595B;" d="M75.891,118.869c3.697-2.275,26.449-13.935,35.549-35.265s30.146-27.871,30.146-27.871
						c-28.396,1.545-34.623,29.245-51.312,38.166c-16.69,8.92-23.308,25.035-23.308,25.035s-22.732-13.812-18.992,25.322
						c2.785,29.131,23.905,37.693,34.521,40.167C65.63,148.705,72.466,120.976,75.891,118.869z"/>
					<path style="fill:#58595B;" d="M235.528,144.256c3.741-39.135-18.992-25.322-18.992-25.322s-6.618-16.114-23.308-25.035
						c-16.69-8.92-22.917-36.621-51.312-38.166h-0.21c0,0,21.045,6.541,30.146,27.871c9.101,21.329,31.852,32.99,35.549,35.265
						c3.426,2.108,10.268,29.864-6.63,65.609C211.306,182.076,232.722,173.605,235.528,144.256z"/>
				</g>
			</g>
			<g>
				<g>
					<g>
						<path style="fill:#FED09E;" d="M206.113,149.057c0.195-0.561,8.815-22.625,21.371-19.19c4.838,1.324,5.996,6.198,5.788,10.712
							c-0.304,6.603-2.655,13.791-5.884,19.545c-2.976,5.303-7.355,9.931-13.177,12.028c-3.231,1.163-10.341,3.248-12.327-1.018
							c-0.715-1.535-0.37-3.409,0.098-4.959C205.885,153.228,206.113,149.057,206.113,149.057z"/>
						<path style="fill:#FED09E;" d="M217.166,163.366c0,0,6.672-0.172,10.791-9.02c4.119-8.849,3.049-19.783-2.254-19.659
							c-5.302,0.123-14.538,14.659-14.538,14.659s6.076,2.677,1.475,8.325c0,0,9.348-1.469,9.247-7.025
							c-0.101-5.556-5.711-5.802-5.711-5.802s8.135-9.855,11.379-7.005C230.8,140.689,226.368,161.628,217.166,163.366z"/>
					</g>
				</g>
				<g>
					<g>
						<path style="fill:#FED09E;" d="M77.178,149.057c-0.195-0.561-8.815-22.625-21.371-19.19
							c-4.838,1.324-5.996,6.198-5.788,10.712c0.304,6.603,2.655,13.791,5.884,19.545c2.976,5.303,7.355,9.931,13.177,12.028
							c3.231,1.163,10.341,3.248,12.327-1.018c0.715-1.535,0.37-3.409-0.098-4.959C77.406,153.228,77.178,149.057,77.178,149.057z"
							/>
						<path style="fill:#FED09E;" d="M66.125,163.366c0,0-6.672-0.172-10.791-9.02c-4.119-8.849-3.049-19.783,2.254-19.659
							c5.302,0.123,14.538,14.659,14.538,14.659s-6.076,2.677-1.475,8.325c0,0-9.348-1.469-9.248-7.025
							c0.101-5.556,5.711-5.802,5.711-5.802s-8.135-9.855-11.379-7.005C52.491,140.689,56.923,161.628,66.125,163.366z"/>
					</g>
				</g>
			</g>
			<g>
				<g>
					<g>
						<g>
							<path style="fill:#58595B;" d="M85.386,118.955c0,0,3.835-0.667,7.671-2.835c3.835-2.168,12.173-3.502,20.178-0.5
								c8.004,3.002,15.008,3.502,15.008,3.502l-0.083-6.087c0,0-11.923-2.084-15.675-3.502c-3.752-1.417-12.59-1.834-16.759,1.334
								C91.556,114.036,88.304,117.204,85.386,118.955z"/>
							<polygon style="fill:#58595B;" points="128.648,119.121 129.178,119.121 129.178,113.078 128.893,113.405 							"/>
						</g>
						<g>
							<path style="fill:#FFFFFF;" d="M91.969,133.226c0,0,5.208-7.651,16.459-6.172c11.252,1.479,16.698,11.743,16.698,11.743
								s-8.147,7.417-17.341,6.259C98.591,143.898,91.969,133.226,91.969,133.226z"/>
							<g>
								<circle style="fill:#726658;" cx="108.853" cy="134.284" r="9.137"/>
								<path style="fill:#241F20;" d="M103.614,134.284c0,2.893,2.346,5.239,5.239,5.239c2.893,0,5.239-2.346,5.239-5.239
									c0-2.894-2.346-5.239-5.239-5.239C105.96,129.045,103.614,131.391,103.614,134.284z"/>
								<path style="fill:#FFFFFF;" d="M110.283,132.42c0,1.82,1.476,3.296,3.296,3.296c1.82,0,3.296-1.476,3.296-3.296
									c0-1.82-1.476-3.296-3.296-3.296C111.759,129.124,110.283,130.6,110.283,132.42z"/>
							</g>
							<g>
								<path style="fill:#231F20;" d="M125.126,138.797c0,0-4.868-14.275-19.391-14.275c-3.394,0-7.003,0.468-10.053,2.148
									c-3.074,1.693-5.034,5.202-8.595,6.021c0,0,1.72,0.958,3.887,0.82c0,0-1.429,0.968-3.596,0.968c0,0,2.259,0.691,4.333,0.461
									c0,0,1.383,8.344,12.953,10.51c11.57,2.167,17.84-4.702,17.84-4.702s-19.638,11.755-29.687-7.191
									c0,0,5.301-6.315,15.212-5.071C117.94,129.73,125.126,138.797,125.126,138.797z"/>
								<g>
									<path style="fill:#231F20;" d="M90.241,138.513c0,0,2.011-0.513,2.564-2.13l0.947,1.735
										C93.751,138.118,91.542,139.025,90.241,138.513z"/>
									<path style="fill:#231F20;" d="M91.61,140.351c0,0,2.012-0.513,2.564-2.13l0.947,1.735
										C95.12,139.956,92.912,140.863,91.61,140.351z"/>
									<path style="fill:#231F20;" d="M93.717,142.308c0,0,1.752-1.114,1.773-2.822l1.44,1.354
										C96.929,140.84,95.113,142.39,93.717,142.308z"/>
									<path style="fill:#231F20;" d="M96.25,143.557c0,0,1.177-1.14,0.922-2.464l1.329,0.818
										C98.5,141.911,97.342,143.398,96.25,143.557z"/>
								</g>
							</g>
						</g>
					</g>
					<g>
						<g>
							<path style="fill:#58595B;" d="M197.905,118.955c0,0-3.835-0.667-7.671-2.835c-3.835-2.168-12.173-3.502-20.178-0.5
								c-8.004,3.002-15.008,3.502-15.008,3.502l0.083-6.087c0,0,11.923-2.084,15.675-3.502c3.752-1.417,12.59-1.834,16.759,1.334
								C191.735,114.036,194.986,117.204,197.905,118.955z"/>
							<polygon style="fill:#58595B;" points="154.643,119.121 154.112,119.121 154.112,113.078 154.398,113.405 							"/>
						</g>
						<g>
							<path style="fill:#FFFFFF;" d="M191.322,133.226c0,0-5.208-7.651-16.459-6.172c-11.251,1.479-16.698,11.743-16.698,11.743
								s8.147,7.417,17.341,6.259C184.699,143.898,191.322,133.226,191.322,133.226z"/>
							<g>
								<circle style="fill:#726658;" cx="174.438" cy="134.284" r="9.137"/>
								<path style="fill:#241F20;" d="M179.677,134.284c0,2.893-2.346,5.239-5.239,5.239c-2.894,0-5.239-2.346-5.239-5.239
									c0-2.894,2.346-5.239,5.239-5.239C177.331,129.045,179.677,131.391,179.677,134.284z"/>
								<path style="fill:#FFFFFF;" d="M173.008,132.42c0,1.82-1.476,3.296-3.296,3.296s-3.296-1.476-3.296-3.296
									c0-1.82,1.476-3.296,3.296-3.296S173.008,130.6,173.008,132.42z"/>
							</g>
							<g>
								<path style="fill:#231F20;" d="M158.164,138.797c0,0,4.868-14.275,19.391-14.275c3.394,0,7.003,0.468,10.053,2.148
									c3.074,1.693,5.034,5.202,8.595,6.021c0,0-1.72,0.958-3.887,0.82c0,0,1.429,0.968,3.596,0.968c0,0-2.259,0.691-4.333,0.461
									c0,0-1.383,8.344-12.953,10.51c-11.57,2.167-17.84-4.702-17.84-4.702s19.638,11.755,29.687-7.191
									c0,0-5.301-6.315-15.212-5.071C165.351,129.73,158.164,138.797,158.164,138.797z"/>
								<g>
									<path style="fill:#231F20;" d="M193.05,138.513c0,0-2.012-0.513-2.564-2.13l-0.947,1.735
										C189.54,138.118,191.749,139.025,193.05,138.513z"/>
									<path style="fill:#231F20;" d="M191.681,140.351c0,0-2.012-0.513-2.564-2.13l-0.947,1.735
										C188.17,139.956,190.379,140.863,191.681,140.351z"/>
									<path style="fill:#231F20;" d="M189.574,142.308c0,0-1.752-1.114-1.773-2.822l-1.44,1.354
										C186.361,140.84,188.178,142.39,189.574,142.308z"/>
									<path style="fill:#231F20;" d="M187.041,143.557c0,0-1.177-1.14-0.922-2.464l-1.329,0.818
										C184.791,141.911,185.948,143.398,187.041,143.557z"/>
								</g>
							</g>
						</g>
					</g>
				</g>
				<g style="opacity:0.55;">
					<path style="opacity:0.74;fill:#E07B70;" d="M150.135,169.778c0,3.557-3.801,6.441-8.49,6.441c-4.689,0-8.49-2.884-8.49-6.441
						c0-3.557,3.801-13.655,8.49-13.655C146.334,156.123,150.135,166.221,150.135,169.778z"/>
					<g style="opacity:0.5;">
						<path style="fill:#E1A566;" d="M141.645,174.066c-4.259,0-7.775-2.382-8.386-5.484c-0.068,0.449-0.104,0.853-0.104,1.196
							c0,3.557,3.801,6.441,8.49,6.441c4.689,0,8.49-2.884,8.49-6.441c0-0.343-0.036-0.747-0.104-1.196
							C149.421,171.684,145.904,174.066,141.645,174.066z"/>
					</g>
					<path style="fill:#B25538;" d="M133.826,172.185c-0.013,0.012-0.022,0.023-0.035,0.035c0.941,1.74,2.855,3.097,5.231,3.682
						C138.321,174.741,135.645,170.623,133.826,172.185z"/>
					<path style="fill:#B25538;" d="M149.472,172.185c0.014,0.012,0.022,0.023,0.035,0.035c-0.941,1.74-2.855,3.097-5.231,3.682
						C144.977,174.741,147.653,170.623,149.472,172.185z"/>
				</g>
				<g>
					<path style="fill:#B84C2F;" d="M160.51,192.383c0,0-6.69,12.251-19.115,12.251h0.007c-12.425,0-19.115-12.251-19.115-12.251
						H160.51z"/>
					<path style="opacity:0.6;fill:#B84C2F;" d="M160.51,192.383c0,0-6.69,12.251-19.115,12.251h0.007
						c-12.425,0-19.115-12.251-19.115-12.251H160.51z"/>
					<path style="fill:#B84C2F;" d="M120.612,191.665c0,0,18.889,9.238,42.068,0.165c0,0-3.712-0.082-7.341-1.98
						c-3.629-1.897-9.156-4.124-13.858-1.815c0,0-5.279-2.639-12.043,1.155C122.674,192.984,120.612,191.665,120.612,191.665z"/>
				</g>
			</g>
			<g>
				<path style="fill:#930F10;" d="M77.002,176.116h-3.108c-1.059,0-1.918-0.859-1.918-1.918v-4.479
					c0-1.059,0.859-1.918,1.918-1.918h3.108c1.059,0,1.918,0.859,1.918,1.918v4.479C78.92,175.257,78.062,176.116,77.002,176.116z"
					/>
				<path style="opacity:0.3;fill:#930F10;" d="M77.95,168.052c0.25,0.492,0.386,1.039,0.414,1.593
					c0.066,1.339-0.385,2.839-1.647,3.489c-1.171,0.603-2.683,0.349-3.59-0.613c-0.989-1.049-1.162-3.007-0.431-4.298
					c-0.438,0.352-0.718,0.89-0.718,1.495v4.479c0,1.059,0.859,1.918,1.918,1.918h3.108c1.059,0,1.918-0.859,1.918-1.918v-4.479
					C78.92,169.004,78.529,168.382,77.95,168.052z"/>
				<path style="fill:#930F10;" d="M69.674,183.83v-4.316c0-1.471,1.193-2.664,2.664-2.664h6.222c1.471,0,2.664,1.193,2.664,2.664
					v4.316c0,1.471-1.193,2.664-2.664,2.664h-6.222C70.867,186.494,69.674,185.302,69.674,183.83z"/>
				<path style="opacity:0.3;fill:#930F10;" d="M79.245,176.943c0.329,0.753,0.491,1.579,0.428,2.4
					c-0.094,1.226-0.712,2.36-1.781,2.997c-1.221,0.728-2.82,0.803-4.109,0.217c-1.207-0.549-2.129-1.675-2.429-2.966
					c-0.214-0.917-0.087-1.841,0.312-2.652c-1.145,0.298-1.992,1.336-1.992,2.575v4.316c0,1.471,1.193,2.664,2.664,2.664h6.222
					c1.471,0,2.664-1.193,2.664-2.664v-4.316C81.223,178.281,80.383,177.246,79.245,176.943z"/>
			</g>
			<g>
				<path style="fill:#930F10;" d="M213.048,176.116h-3.108c-1.059,0-1.918-0.859-1.918-1.918v-4.479
					c0-1.059,0.859-1.918,1.918-1.918h3.108c1.059,0,1.918,0.859,1.918,1.918v4.479
					C214.966,175.257,214.107,176.116,213.048,176.116z"/>
				<path style="opacity:0.3;fill:#930F10;" d="M213.995,168.052c0.25,0.492,0.386,1.039,0.414,1.593
					c0.066,1.339-0.385,2.839-1.647,3.489c-1.171,0.603-2.683,0.349-3.59-0.613c-0.989-1.049-1.162-3.007-0.431-4.298
					c-0.438,0.352-0.718,0.89-0.718,1.495v4.479c0,1.059,0.859,1.918,1.918,1.918h3.108c1.059,0,1.918-0.859,1.918-1.918v-4.479
					C214.966,169.004,214.575,168.382,213.995,168.052z"/>
				<path style="fill:#930F10;" d="M205.72,183.83v-4.316c0-1.471,1.193-2.664,2.664-2.664h6.221c1.471,0,2.664,1.193,2.664,2.664
					v4.316c0,1.471-1.193,2.664-2.664,2.664h-6.221C206.912,186.494,205.72,185.302,205.72,183.83z"/>
				<path style="opacity:0.3;fill:#930F10;" d="M215.291,176.943c0.329,0.753,0.491,1.579,0.428,2.4
					c-0.094,1.226-0.712,2.36-1.781,2.997c-1.221,0.728-2.82,0.803-4.109,0.217c-1.206-0.549-2.129-1.675-2.429-2.966
					c-0.214-0.917-0.087-1.841,0.312-2.652c-1.145,0.298-1.992,1.336-1.992,2.575v4.316c0,1.471,1.193,2.664,2.664,2.664h6.221
					c1.471,0,2.664-1.193,2.664-2.664v-4.316C217.269,178.281,216.429,177.246,215.291,176.943z"/>
			</g>
		</g>
	</g>
</g>
</svg>
